STARTFONT 2.1
COMMENT
COMMENT Converted from OpenType font "truongsa_regular.ttf" by "otf2bdf 3.0".
COMMENT
FONT -FreeType-VPS Truong Sa Light Hoa-Medium-R-Normal--10-70-100-100-P-50-ISO10646-1
SIZE 7 100 100
FONTBOUNDINGBOX 9 14 0 -3
STARTPROPERTIES 19
FOUNDRY "FreeType"
FAMILY_NAME "VPS Truong Sa Light Hoa"
WEIGHT_NAME "Medium"
SLANT "R"
SETWIDTH_NAME "Normal"
ADD_STYLE_NAME ""
PIXEL_SIZE 10
POINT_SIZE 70
RESOLUTION_X 100
RESOLUTION_Y 100
SPACING "P"
AVERAGE_WIDTH 50
CHARSET_REGISTRY "ISO10646"
CHARSET_ENCODING "1"
FONT_ASCENT 9
FONT_DESCENT 2
COPYRIGHT "VPS Font"
_OTF_FONTFILE "truongsa_regular.ttf"
_OTF_PSNAME "VPS Truong Sa Light Hoa"
ENDPROPERTIES
CHARS 270
STARTCHAR 0002
ENCODING 2
SWIDTH 617 0
DWIDTH 6 0
BBX 6 7 0 -2
BITMAP
10
30
48
48
78
84
84
ENDCHAR
STARTCHAR 0003
ENCODING 3
SWIDTH 617 0
DWIDTH 6 0
BBX 6 9 0 -2
BITMAP
30
00
10
30
48
48
78
84
84
ENDCHAR
STARTCHAR 0004
ENCODING 4
SWIDTH 617 0
DWIDTH 6 0
BBX 6 8 0 -1
BITMAP
30
10
30
48
48
78
84
84
ENDCHAR
STARTCHAR 0005
ENCODING 5
SWIDTH 514 0
DWIDTH 5 0
BBX 5 7 1 -2
BITMAP
F8
80
80
F0
80
80
F8
ENDCHAR
STARTCHAR 0006
ENCODING 6
SWIDTH 514 0
DWIDTH 5 0
BBX 5 11 1 -2
BITMAP
60
00
F8
80
80
F0
80
80
F8
00
20
ENDCHAR
STARTCHAR 0015
ENCODING 21
SWIDTH 617 0
DWIDTH 6 0
BBX 7 11 0 -2
BITMAP
02
00
C6
44
44
84
84
44
68
10
10
ENDCHAR
STARTCHAR 0019
ENCODING 25
SWIDTH 617 0
DWIDTH 6 0
BBX 6 9 0 -2
BITMAP
C4
48
28
30
10
10
30
00
10
ENDCHAR
STARTCHAR 001C
ENCODING 28
SWIDTH 617 0
DWIDTH 6 0
BBX 6 11 0 0
BITMAP
08
30
30
00
10
30
48
48
78
84
84
ENDCHAR
STARTCHAR 001D
ENCODING 29
SWIDTH 617 0
DWIDTH 6 0
BBX 7 11 0 0
BITMAP
10
08
02
00
C6
44
44
84
84
44
78
ENDCHAR
STARTCHAR 0020
ENCODING 32
SWIDTH 205 0
DWIDTH 2 0
BBX 0 0 0 0
BITMAP
ENDCHAR
STARTCHAR 0021
ENCODING 33
SWIDTH 205 0
DWIDTH 2 0
BBX 1 7 1 0
BITMAP
80
80
80
80
00
00
80
ENDCHAR
STARTCHAR 0022
ENCODING 34
SWIDTH 308 0
DWIDTH 3 0
BBX 3 3 0 4
BITMAP
A0
A0
20
ENDCHAR
STARTCHAR 0023
ENCODING 35
SWIDTH 720 0
DWIDTH 7 0
BBX 6 6 1 1
BITMAP
28
FC
50
F8
A0
A0
ENDCHAR
STARTCHAR 0024
ENCODING 36
SWIDTH 514 0
DWIDTH 5 0
BBX 4 9 1 -1
BITMAP
40
E0
C0
C0
60
50
50
E0
40
ENDCHAR
STARTCHAR 0025
ENCODING 37
SWIDTH 822 0
DWIDTH 8 0
BBX 7 7 1 0
BITMAP
F8
A8
B0
50
2E
52
4E
ENDCHAR
STARTCHAR 0026
ENCODING 38
SWIDTH 720 0
DWIDTH 7 0
BBX 7 7 0 0
BITMAP
70
48
50
66
94
88
76
ENDCHAR
STARTCHAR 0027
ENCODING 39
SWIDTH 102 0
DWIDTH 1 0
BBX 1 2 0 4
BITMAP
80
80
ENDCHAR
STARTCHAR 0028
ENCODING 40
SWIDTH 308 0
DWIDTH 3 0
BBX 2 9 1 -2
BITMAP
80
80
80
80
80
80
80
80
40
ENDCHAR
STARTCHAR 0029
ENCODING 41
SWIDTH 308 0
DWIDTH 3 0
BBX 1 8 1 -2
BITMAP
80
80
80
80
80
80
80
80
ENDCHAR
STARTCHAR 002A
ENCODING 42
SWIDTH 411 0
DWIDTH 4 0
BBX 3 4 1 3
BITMAP
40
E0
E0
40
ENDCHAR
STARTCHAR 002B
ENCODING 43
SWIDTH 822 0
DWIDTH 8 0
BBX 4 5 2 1
BITMAP
40
40
F0
40
40
ENDCHAR
STARTCHAR 002C
ENCODING 44
SWIDTH 205 0
DWIDTH 2 0
BBX 1 3 1 -2
BITMAP
80
80
80
ENDCHAR
STARTCHAR 002D
ENCODING 45
SWIDTH 308 0
DWIDTH 3 0
BBX 3 1 0 2
BITMAP
E0
ENDCHAR
STARTCHAR 002E
ENCODING 46
SWIDTH 205 0
DWIDTH 2 0
BBX 1 1 1 0
BITMAP
80
ENDCHAR
STARTCHAR 002F
ENCODING 47
SWIDTH 205 0
DWIDTH 2 0
BBX 2 6 0 0
BITMAP
40
40
40
80
80
80
ENDCHAR
STARTCHAR 0030
ENCODING 48
SWIDTH 514 0
DWIDTH 5 0
BBX 5 7 0 0
BITMAP
70
88
88
88
88
88
70
ENDCHAR
STARTCHAR 0031
ENCODING 49
SWIDTH 514 0
DWIDTH 5 0
BBX 2 7 2 0
BITMAP
80
80
80
80
80
80
C0
ENDCHAR
STARTCHAR 0032
ENCODING 50
SWIDTH 514 0
DWIDTH 5 0
BBX 5 7 0 0
BITMAP
70
88
08
10
20
40
F8
ENDCHAR
STARTCHAR 0033
ENCODING 51
SWIDTH 514 0
DWIDTH 5 0
BBX 5 7 0 0
BITMAP
70
08
10
30
08
88
F0
ENDCHAR
STARTCHAR 0034
ENCODING 52
SWIDTH 514 0
DWIDTH 5 0
BBX 5 7 0 0
BITMAP
10
70
50
90
F8
10
10
ENDCHAR
STARTCHAR 0035
ENCODING 53
SWIDTH 514 0
DWIDTH 5 0
BBX 5 7 0 0
BITMAP
70
80
80
78
08
88
70
ENDCHAR
STARTCHAR 0036
ENCODING 54
SWIDTH 514 0
DWIDTH 5 0
BBX 5 7 0 0
BITMAP
30
40
80
F8
88
88
70
ENDCHAR
STARTCHAR 0037
ENCODING 55
SWIDTH 514 0
DWIDTH 5 0
BBX 4 7 1 0
BITMAP
F0
20
20
20
40
40
40
ENDCHAR
STARTCHAR 0038
ENCODING 56
SWIDTH 514 0
DWIDTH 5 0
BBX 5 7 0 0
BITMAP
70
88
50
30
C8
88
70
ENDCHAR
STARTCHAR 0039
ENCODING 57
SWIDTH 514 0
DWIDTH 5 0
BBX 5 7 0 0
BITMAP
70
88
88
48
38
10
20
ENDCHAR
STARTCHAR 003A
ENCODING 58
SWIDTH 205 0
DWIDTH 2 0
BBX 1 4 1 0
BITMAP
80
00
00
80
ENDCHAR
STARTCHAR 003B
ENCODING 59
SWIDTH 205 0
DWIDTH 2 0
BBX 1 6 1 -2
BITMAP
80
00
00
80
80
80
ENDCHAR
STARTCHAR 003C
ENCODING 60
SWIDTH 822 0
DWIDTH 8 0
BBX 4 4 2 0
BITMAP
10
E0
80
70
ENDCHAR
STARTCHAR 003D
ENCODING 61
SWIDTH 822 0
DWIDTH 8 0
BBX 4 2 2 2
BITMAP
F0
F0
ENDCHAR
STARTCHAR 003E
ENCODING 62
SWIDTH 822 0
DWIDTH 8 0
BBX 5 5 1 0
BITMAP
60
18
08
30
C0
ENDCHAR
STARTCHAR 003F
ENCODING 63
SWIDTH 411 0
DWIDTH 4 0
BBX 4 7 0 0
BITMAP
F0
90
10
20
40
00
40
ENDCHAR
STARTCHAR 0040
ENCODING 64
SWIDTH 925 0
DWIDTH 9 0
BBX 8 8 1 -1
BITMAP
3C
C2
9D
A5
A5
AA
94
7E
ENDCHAR
STARTCHAR 0041
ENCODING 65
SWIDTH 617 0
DWIDTH 6 0
BBX 6 7 0 0
BITMAP
10
30
48
48
78
84
84
ENDCHAR
STARTCHAR 0042
ENCODING 66
SWIDTH 617 0
DWIDTH 6 0
BBX 5 7 1 0
BITMAP
F0
88
90
F0
88
88
F8
ENDCHAR
STARTCHAR 0043
ENCODING 67
SWIDTH 617 0
DWIDTH 6 0
BBX 7 7 0 0
BITMAP
3C
40
80
80
80
42
3C
ENDCHAR
STARTCHAR 0044
ENCODING 68
SWIDTH 720 0
DWIDTH 7 0
BBX 6 7 1 0
BITMAP
F0
88
84
84
84
88
F0
ENDCHAR
STARTCHAR 0045
ENCODING 69
SWIDTH 514 0
DWIDTH 5 0
BBX 5 7 1 0
BITMAP
F8
80
80
F0
80
80
F8
ENDCHAR
STARTCHAR 0046
ENCODING 70
SWIDTH 514 0
DWIDTH 5 0
BBX 4 7 1 0
BITMAP
F0
80
80
F0
80
80
80
ENDCHAR
STARTCHAR 0047
ENCODING 71
SWIDTH 720 0
DWIDTH 7 0
BBX 7 7 0 0
BITMAP
3C
42
C0
86
82
42
3E
ENDCHAR
STARTCHAR 0048
ENCODING 72
SWIDTH 720 0
DWIDTH 7 0
BBX 6 7 1 0
BITMAP
84
84
84
FC
84
84
8C
ENDCHAR
STARTCHAR 0049
ENCODING 73
SWIDTH 205 0
DWIDTH 2 0
BBX 1 7 1 0
BITMAP
80
80
80
80
80
80
80
ENDCHAR
STARTCHAR 004A
ENCODING 74
SWIDTH 411 0
DWIDTH 4 0
BBX 4 7 0 0
BITMAP
30
10
10
10
10
90
E0
ENDCHAR
STARTCHAR 004B
ENCODING 75
SWIDTH 617 0
DWIDTH 6 0
BBX 5 7 1 0
BITMAP
98
90
A0
E0
90
90
88
ENDCHAR
STARTCHAR 004C
ENCODING 76
SWIDTH 514 0
DWIDTH 5 0
BBX 5 7 1 0
BITMAP
80
80
80
80
80
80
F8
ENDCHAR
STARTCHAR 004D
ENCODING 77
SWIDTH 822 0
DWIDTH 8 0
BBX 7 7 0 0
BITMAP
42
66
66
AA
9A
92
42
ENDCHAR
STARTCHAR 004E
ENCODING 78
SWIDTH 720 0
DWIDTH 7 0
BBX 6 7 0 0
BITMAP
C4
A4
94
8C
8C
84
44
ENDCHAR
STARTCHAR 004F
ENCODING 79
SWIDTH 720 0
DWIDTH 7 0
BBX 7 7 0 0
BITMAP
3C
42
82
82
82
42
3C
ENDCHAR
STARTCHAR 0050
ENCODING 80
SWIDTH 514 0
DWIDTH 5 0
BBX 5 7 1 0
BITMAP
F0
88
88
B0
C0
80
80
ENDCHAR
STARTCHAR 0051
ENCODING 81
SWIDTH 720 0
DWIDTH 7 0
BBX 7 8 0 -1
BITMAP
3C
42
82
82
82
42
34
0E
ENDCHAR
STARTCHAR 0052
ENCODING 82
SWIDTH 617 0
DWIDTH 6 0
BBX 5 7 1 0
BITMAP
F0
88
98
E0
90
90
88
ENDCHAR
STARTCHAR 0053
ENCODING 83
SWIDTH 514 0
DWIDTH 5 0
BBX 5 7 0 0
BITMAP
78
80
40
38
08
88
78
ENDCHAR
STARTCHAR 0054
ENCODING 84
SWIDTH 514 0
DWIDTH 5 0
BBX 6 7 0 0
BITMAP
FC
20
20
20
20
20
30
ENDCHAR
STARTCHAR 0055
ENCODING 85
SWIDTH 617 0
DWIDTH 6 0
BBX 6 7 0 0
BITMAP
C4
44
44
84
84
44
78
ENDCHAR
STARTCHAR 0056
ENCODING 86
SWIDTH 617 0
DWIDTH 6 0
BBX 6 7 0 0
BITMAP
84
84
48
48
48
30
30
ENDCHAR
STARTCHAR 0057
ENCODING 87
SWIDTH 925 0
DWIDTH 9 0
BBX 9 7 0 0
BITMAP
C880
8900
4900
5500
5500
6600
2200
ENDCHAR
STARTCHAR 0058
ENCODING 88
SWIDTH 617 0
DWIDTH 6 0
BBX 6 7 0 0
BITMAP
44
48
30
10
28
48
C4
ENDCHAR
STARTCHAR 0059
ENCODING 89
SWIDTH 617 0
DWIDTH 6 0
BBX 6 7 0 0
BITMAP
C4
48
28
30
10
10
30
ENDCHAR
STARTCHAR 005A
ENCODING 90
SWIDTH 514 0
DWIDTH 5 0
BBX 5 7 0 0
BITMAP
78
08
10
20
40
40
F8
ENDCHAR
STARTCHAR 005B
ENCODING 91
SWIDTH 308 0
DWIDTH 3 0
BBX 1 8 1 -1
BITMAP
80
80
80
80
80
80
80
80
ENDCHAR
STARTCHAR 005C
ENCODING 92
SWIDTH 205 0
DWIDTH 2 0
BBX 3 7 0 0
BITMAP
80
80
80
40
40
40
20
ENDCHAR
STARTCHAR 005D
ENCODING 93
SWIDTH 308 0
DWIDTH 3 0
BBX 1 8 1 -1
BITMAP
80
80
80
80
80
80
80
80
ENDCHAR
STARTCHAR 005E
ENCODING 94
SWIDTH 925 0
DWIDTH 9 0
BBX 6 3 2 4
BITMAP
30
48
84
ENDCHAR
STARTCHAR 005F
ENCODING 95
SWIDTH 411 0
DWIDTH 4 0
BBX 4 1 0 -3
BITMAP
F0
ENDCHAR
STARTCHAR 0060
ENCODING 96
SWIDTH 411 0
DWIDTH 4 0
BBX 2 2 1 5
BITMAP
80
40
ENDCHAR
STARTCHAR 0061
ENCODING 97
SWIDTH 617 0
DWIDTH 6 0
BBX 6 7 0 0
BITMAP
10
30
48
48
78
84
84
ENDCHAR
STARTCHAR 0062
ENCODING 98
SWIDTH 617 0
DWIDTH 6 0
BBX 5 7 1 0
BITMAP
F0
88
90
F0
88
88
F8
ENDCHAR
STARTCHAR 0063
ENCODING 99
SWIDTH 617 0
DWIDTH 6 0
BBX 7 7 0 0
BITMAP
3C
40
80
80
80
42
3C
ENDCHAR
STARTCHAR 0064
ENCODING 100
SWIDTH 720 0
DWIDTH 7 0
BBX 6 7 1 0
BITMAP
F0
88
84
84
84
88
F0
ENDCHAR
STARTCHAR 0065
ENCODING 101
SWIDTH 514 0
DWIDTH 5 0
BBX 5 7 1 0
BITMAP
F8
80
80
F0
80
80
F8
ENDCHAR
STARTCHAR 0066
ENCODING 102
SWIDTH 514 0
DWIDTH 5 0
BBX 4 7 1 0
BITMAP
F0
80
80
F0
80
80
80
ENDCHAR
STARTCHAR 0067
ENCODING 103
SWIDTH 720 0
DWIDTH 7 0
BBX 7 7 0 0
BITMAP
3C
42
C0
86
82
42
3E
ENDCHAR
STARTCHAR 0068
ENCODING 104
SWIDTH 720 0
DWIDTH 7 0
BBX 6 7 1 0
BITMAP
84
84
84
FC
84
84
8C
ENDCHAR
STARTCHAR 0069
ENCODING 105
SWIDTH 205 0
DWIDTH 2 0
BBX 1 7 1 0
BITMAP
80
80
80
80
80
80
80
ENDCHAR
STARTCHAR 006A
ENCODING 106
SWIDTH 411 0
DWIDTH 4 0
BBX 4 7 0 0
BITMAP
30
10
10
10
10
90
E0
ENDCHAR
STARTCHAR 006B
ENCODING 107
SWIDTH 617 0
DWIDTH 6 0
BBX 5 7 1 0
BITMAP
98
90
A0
E0
90
90
88
ENDCHAR
STARTCHAR 006C
ENCODING 108
SWIDTH 514 0
DWIDTH 5 0
BBX 5 7 1 0
BITMAP
80
80
80
80
80
80
F8
ENDCHAR
STARTCHAR 006D
ENCODING 109
SWIDTH 822 0
DWIDTH 8 0
BBX 7 7 0 0
BITMAP
42
66
66
AA
9A
92
42
ENDCHAR
STARTCHAR 006E
ENCODING 110
SWIDTH 720 0
DWIDTH 7 0
BBX 6 7 0 0
BITMAP
C4
A4
94
8C
8C
84
44
ENDCHAR
STARTCHAR 006F
ENCODING 111
SWIDTH 720 0
DWIDTH 7 0
BBX 7 7 0 0
BITMAP
3C
42
82
82
82
42
3C
ENDCHAR
STARTCHAR 0070
ENCODING 112
SWIDTH 514 0
DWIDTH 5 0
BBX 5 7 1 0
BITMAP
F0
88
88
B0
C0
80
80
ENDCHAR
STARTCHAR 0071
ENCODING 113
SWIDTH 720 0
DWIDTH 7 0
BBX 7 8 0 -1
BITMAP
3C
42
82
82
82
42
34
0E
ENDCHAR
STARTCHAR 0072
ENCODING 114
SWIDTH 617 0
DWIDTH 6 0
BBX 5 7 1 0
BITMAP
F0
88
98
E0
90
90
88
ENDCHAR
STARTCHAR 0073
ENCODING 115
SWIDTH 514 0
DWIDTH 5 0
BBX 5 7 0 0
BITMAP
78
80
40
38
08
88
78
ENDCHAR
STARTCHAR 0074
ENCODING 116
SWIDTH 514 0
DWIDTH 5 0
BBX 6 7 0 0
BITMAP
FC
20
20
20
20
20
30
ENDCHAR
STARTCHAR 0075
ENCODING 117
SWIDTH 617 0
DWIDTH 6 0
BBX 6 7 0 0
BITMAP
C4
44
44
84
84
44
78
ENDCHAR
STARTCHAR 0076
ENCODING 118
SWIDTH 617 0
DWIDTH 6 0
BBX 6 7 0 0
BITMAP
84
84
48
48
48
30
30
ENDCHAR
STARTCHAR 0077
ENCODING 119
SWIDTH 925 0
DWIDTH 9 0
BBX 9 7 0 0
BITMAP
C880
8900
4900
5500
5500
6600
2200
ENDCHAR
STARTCHAR 0078
ENCODING 120
SWIDTH 617 0
DWIDTH 6 0
BBX 6 7 0 0
BITMAP
44
48
30
10
28
48
C4
ENDCHAR
STARTCHAR 0079
ENCODING 121
SWIDTH 617 0
DWIDTH 6 0
BBX 6 7 0 0
BITMAP
C4
48
28
30
10
10
30
ENDCHAR
STARTCHAR 007A
ENCODING 122
SWIDTH 514 0
DWIDTH 5 0
BBX 5 7 0 0
BITMAP
78
08
10
20
40
40
F8
ENDCHAR
STARTCHAR 007B
ENCODING 123
SWIDTH 411 0
DWIDTH 4 0
BBX 2 8 1 -1
BITMAP
40
40
40
40
C0
40
40
40
ENDCHAR
STARTCHAR 007C
ENCODING 124
SWIDTH 411 0
DWIDTH 4 0
BBX 1 9 2 -2
BITMAP
80
80
80
80
80
80
80
80
80
ENDCHAR
STARTCHAR 007D
ENCODING 125
SWIDTH 411 0
DWIDTH 4 0
BBX 1 8 2 -1
BITMAP
80
80
80
80
80
80
80
80
ENDCHAR
STARTCHAR 007E
ENCODING 126
SWIDTH 822 0
DWIDTH 8 0
BBX 6 1 1 3
BITMAP
FC
ENDCHAR
STARTCHAR 0080
ENCODING 128
SWIDTH 617 0
DWIDTH 6 0
BBX 6 9 0 0
BITMAP
20
00
10
30
48
48
78
84
84
ENDCHAR
STARTCHAR 0081
ENCODING 129
SWIDTH 617 0
DWIDTH 6 0
BBX 6 10 0 0
BITMAP
10
10
00
10
30
48
48
78
84
84
ENDCHAR
STARTCHAR 008D
ENCODING 141
SWIDTH 617 0
DWIDTH 6 0
BBX 6 11 0 0
BITMAP
08
10
00
30
10
30
48
48
78
84
84
ENDCHAR
STARTCHAR 008E
ENCODING 142
SWIDTH 617 0
DWIDTH 6 0
BBX 6 11 0 0
BITMAP
40
20
00
30
10
30
48
48
78
84
84
ENDCHAR
STARTCHAR 008F
ENCODING 143
SWIDTH 617 0
DWIDTH 6 0
BBX 6 11 0 0
BITMAP
10
20
00
30
10
30
48
48
78
84
84
ENDCHAR
STARTCHAR 0090
ENCODING 144
SWIDTH 514 0
DWIDTH 5 0
BBX 5 10 1 1
BITMAP
18
60
00
F8
80
80
F0
80
80
F8
ENDCHAR
STARTCHAR 009D
ENCODING 157
SWIDTH 720 0
DWIDTH 7 0
BBX 7 10 0 0
BITMAP
08
16
02
3C
42
82
82
82
42
3C
ENDCHAR
STARTCHAR 009E
ENCODING 158
SWIDTH 720 0
DWIDTH 7 0
BBX 7 10 0 0
BITMAP
20
16
02
3C
42
82
82
82
42
3C
ENDCHAR
STARTCHAR 00A0
ENCODING 160
SWIDTH 514 0
DWIDTH 5 0
BBX 0 0 0 0
BITMAP
ENDCHAR
STARTCHAR 00A1
ENCODING 161
SWIDTH 617 0
DWIDTH 6 0
BBX 6 11 0 0
BITMAP
08
10
00
30
10
30
48
48
78
84
84
ENDCHAR
STARTCHAR 00A2
ENCODING 162
SWIDTH 617 0
DWIDTH 6 0
BBX 6 11 0 0
BITMAP
40
20
00
30
10
30
48
48
78
84
84
ENDCHAR
STARTCHAR 00A3
ENCODING 163
SWIDTH 617 0
DWIDTH 6 0
BBX 6 11 0 0
BITMAP
10
20
00
30
10
30
48
48
78
84
84
ENDCHAR
STARTCHAR 00A4
ENCODING 164
SWIDTH 617 0
DWIDTH 6 0
BBX 6 11 0 0
BITMAP
08
30
00
30
10
30
48
48
78
84
84
ENDCHAR
STARTCHAR 00A5
ENCODING 165
SWIDTH 617 0
DWIDTH 6 0
BBX 6 8 0 -1
BITMAP
30
10
30
48
48
78
84
84
ENDCHAR
STARTCHAR 00A6
ENCODING 166
SWIDTH 720 0
DWIDTH 7 0
BBX 7 10 0 1
BITMAP
38
06
02
3C
42
82
82
82
42
3C
ENDCHAR
STARTCHAR 00A7
ENCODING 167
SWIDTH 720 0
DWIDTH 7 0
BBX 7 10 0 0
BITMAP
08
16
02
3C
42
82
82
82
42
3C
ENDCHAR
STARTCHAR 00A8
ENCODING 168
SWIDTH 617 0
DWIDTH 6 0
BBX 6 9 0 0
BITMAP
10
00
C4
44
44
84
84
44
78
ENDCHAR
STARTCHAR 00A9
ENCODING 169
SWIDTH 720 0
DWIDTH 7 0
BBX 7 10 0 0
BITMAP
20
16
02
3C
42
82
82
82
42
3C
ENDCHAR
STARTCHAR 00AA
ENCODING 170
SWIDTH 720 0
DWIDTH 7 0
BBX 7 10 0 0
BITMAP
08
16
02
3C
42
82
82
82
42
3C
ENDCHAR
STARTCHAR 00AB
ENCODING 171
SWIDTH 720 0
DWIDTH 7 0
BBX 7 10 0 1
BITMAP
38
06
02
3C
42
82
82
82
42
3C
ENDCHAR
STARTCHAR 00AC
ENCODING 172
SWIDTH 617 0
DWIDTH 6 0
BBX 6 9 0 0
BITMAP
18
00
C4
44
44
84
84
44
78
ENDCHAR
STARTCHAR 00AD
ENCODING 173
SWIDTH 617 0
DWIDTH 6 0
BBX 7 10 0 0
BITMAP
08
12
00
C6
44
44
84
84
44
78
ENDCHAR
STARTCHAR 00AE
ENCODING 174
SWIDTH 720 0
DWIDTH 7 0
BBX 7 11 0 -2
BITMAP
06
02
3C
42
82
82
82
42
24
18
10
ENDCHAR
STARTCHAR 00AF
ENCODING 175
SWIDTH 617 0
DWIDTH 6 0
BBX 7 10 0 0
BITMAP
20
12
00
C6
44
44
84
84
44
78
ENDCHAR
STARTCHAR 00B0
ENCODING 176
SWIDTH 720 0
DWIDTH 7 0
BBX 7 11 0 0
BITMAP
04
04
18
00
3C
42
82
82
82
42
3C
ENDCHAR
STARTCHAR 00B1
ENCODING 177
SWIDTH 617 0
DWIDTH 6 0
BBX 7 10 0 0
BITMAP
18
12
00
C6
44
44
84
84
44
78
ENDCHAR
STARTCHAR 00B2
ENCODING 178
SWIDTH 617 0
DWIDTH 6 0
BBX 6 9 0 0
BITMAP
20
00
C4
48
28
30
10
10
30
ENDCHAR
STARTCHAR 00B3
ENCODING 179
SWIDTH 617 0
DWIDTH 6 0
BBX 6 9 0 0
BITMAP
38
00
C4
48
28
30
10
10
30
ENDCHAR
STARTCHAR 00B4
ENCODING 180
SWIDTH 205 0
DWIDTH 2 0
BBX 1 9 1 0
BITMAP
80
00
80
80
80
80
80
80
80
ENDCHAR
STARTCHAR 00B5
ENCODING 181
SWIDTH 205 0
DWIDTH 2 0
BBX 2 9 0 0
BITMAP
80
00
40
40
40
40
40
40
40
ENDCHAR
STARTCHAR 00B6
ENCODING 182
SWIDTH 720 0
DWIDTH 7 0
BBX 7 11 0 -2
BITMAP
18
00
3C
42
82
82
82
42
24
18
10
ENDCHAR
STARTCHAR 00B8
ENCODING 184
SWIDTH 205 0
DWIDTH 2 0
BBX 2 9 0 0
BITMAP
C0
00
40
40
40
40
40
40
40
ENDCHAR
STARTCHAR 00B9
ENCODING 185
SWIDTH 720 0
DWIDTH 7 0
BBX 7 9 0 0
BITMAP
08
00
3C
42
82
82
82
42
3C
ENDCHAR
STARTCHAR 00BA
ENCODING 186
SWIDTH 617 0
DWIDTH 6 0
BBX 7 10 0 0
BITMAP
18
12
00
C6
44
44
84
84
44
78
ENDCHAR
STARTCHAR 00BB
ENCODING 187
SWIDTH 617 0
DWIDTH 6 0
BBX 7 11 0 0
BITMAP
10
08
02
00
C6
44
44
84
84
44
78
ENDCHAR
STARTCHAR 00BC
ENCODING 188
SWIDTH 720 0
DWIDTH 7 0
BBX 7 9 0 0
BITMAP
10
00
3C
42
82
82
82
42
3C
ENDCHAR
STARTCHAR 00BD
ENCODING 189
SWIDTH 720 0
DWIDTH 7 0
BBX 7 10 0 0
BITMAP
18
10
00
3C
42
82
82
82
42
3C
ENDCHAR
STARTCHAR 00BE
ENCODING 190
SWIDTH 720 0
DWIDTH 7 0
BBX 7 9 0 0
BITMAP
18
00
3C
42
82
82
82
42
3C
ENDCHAR
STARTCHAR 00BF
ENCODING 191
SWIDTH 617 0
DWIDTH 6 0
BBX 7 11 0 -2
BITMAP
02
00
C6
44
44
84
84
44
68
10
10
ENDCHAR
STARTCHAR 00C0
ENCODING 192
SWIDTH 617 0
DWIDTH 6 0
BBX 6 11 0 0
BITMAP
80
40
30
00
10
30
48
48
78
84
84
ENDCHAR
STARTCHAR 00C1
ENCODING 193
SWIDTH 617 0
DWIDTH 6 0
BBX 6 9 0 0
BITMAP
10
00
10
30
48
48
78
84
84
ENDCHAR
STARTCHAR 00C2
ENCODING 194
SWIDTH 617 0
DWIDTH 6 0
BBX 6 9 0 0
BITMAP
30
00
10
30
48
48
78
84
84
ENDCHAR
STARTCHAR 00C3
ENCODING 195
SWIDTH 617 0
DWIDTH 6 0
BBX 6 10 0 1
BITMAP
04
30
00
10
30
48
48
78
84
84
ENDCHAR
STARTCHAR 00C4
ENCODING 196
SWIDTH 617 0
DWIDTH 6 0
BBX 6 11 0 0
BITMAP
08
08
30
00
10
30
48
48
78
84
84
ENDCHAR
STARTCHAR 00C5
ENCODING 197
SWIDTH 617 0
DWIDTH 6 0
BBX 6 11 0 0
BITMAP
08
30
30
00
10
30
48
48
78
84
84
ENDCHAR
STARTCHAR 00C6
ENCODING 198
SWIDTH 617 0
DWIDTH 6 0
BBX 6 9 0 -2
BITMAP
30
00
10
30
48
48
78
84
84
ENDCHAR
STARTCHAR 00C7
ENCODING 199
SWIDTH 720 0
DWIDTH 7 0
BBX 6 7 1 0
BITMAP
F0
88
84
C4
84
88
F0
ENDCHAR
STARTCHAR 00C8
ENCODING 200
SWIDTH 514 0
DWIDTH 5 0
BBX 5 10 1 0
BITMAP
20
20
00
F8
80
80
F0
80
80
F8
ENDCHAR
STARTCHAR 00C9
ENCODING 201
SWIDTH 514 0
DWIDTH 5 0
BBX 5 9 1 0
BITMAP
20
00
F8
80
80
F0
80
80
F8
ENDCHAR
STARTCHAR 00CA
ENCODING 202
SWIDTH 514 0
DWIDTH 5 0
BBX 5 9 1 0
BITMAP
60
00
F8
80
80
F0
80
80
F8
ENDCHAR
STARTCHAR 00CB
ENCODING 203
SWIDTH 514 0
DWIDTH 5 0
BBX 5 7 1 -2
BITMAP
F8
80
80
F0
80
80
F8
ENDCHAR
STARTCHAR 00CC
ENCODING 204
SWIDTH 205 0
DWIDTH 2 0
BBX 1 10 1 0
BITMAP
80
80
00
80
80
80
80
80
80
80
ENDCHAR
STARTCHAR 00CD
ENCODING 205
SWIDTH 514 0
DWIDTH 5 0
BBX 5 11 1 0
BITMAP
10
60
60
00
F8
80
80
F0
80
80
F8
ENDCHAR
STARTCHAR 00CE
ENCODING 206
SWIDTH 205 0
DWIDTH 2 0
BBX 1 9 1 -2
BITMAP
80
80
80
80
80
80
80
00
80
ENDCHAR
STARTCHAR 00CF
ENCODING 207
SWIDTH 617 0
DWIDTH 6 0
BBX 6 9 0 0
BITMAP
38
00
C4
48
28
30
10
10
30
ENDCHAR
STARTCHAR 00D0
ENCODING 208
SWIDTH 617 0
DWIDTH 6 0
BBX 7 9 0 0
BITMAP
02
00
C6
44
44
84
84
44
78
ENDCHAR
STARTCHAR 00D1
ENCODING 209
SWIDTH 617 0
DWIDTH 6 0
BBX 6 10 0 0
BITMAP
10
10
00
C4
44
44
84
84
44
78
ENDCHAR
STARTCHAR 00D2
ENCODING 210
SWIDTH 720 0
DWIDTH 7 0
BBX 7 10 0 1
BITMAP
40
18
00
3C
42
82
82
82
42
3C
ENDCHAR
STARTCHAR 00D3
ENCODING 211
SWIDTH 720 0
DWIDTH 7 0
BBX 7 10 0 0
BITMAP
04
18
00
3C
42
82
82
82
42
3C
ENDCHAR
STARTCHAR 00D4
ENCODING 212
SWIDTH 720 0
DWIDTH 7 0
BBX 7 9 0 0
BITMAP
18
00
3C
42
82
82
82
42
3C
ENDCHAR
STARTCHAR 00D5
ENCODING 213
SWIDTH 720 0
DWIDTH 7 0
BBX 7 10 0 0
BITMAP
18
10
00
3C
42
82
82
82
42
3C
ENDCHAR
STARTCHAR 00D6
ENCODING 214
SWIDTH 720 0
DWIDTH 7 0
BBX 7 9 0 0
BITMAP
06
02
3C
42
82
82
82
42
3C
ENDCHAR
STARTCHAR 00D7
ENCODING 215
SWIDTH 514 0
DWIDTH 5 0
BBX 5 9 1 0
BITMAP
40
00
F8
80
80
F0
80
80
F8
ENDCHAR
STARTCHAR 00D8
ENCODING 216
SWIDTH 617 0
DWIDTH 6 0
BBX 7 10 0 0
BITMAP
20
12
00
C6
44
44
84
84
44
78
ENDCHAR
STARTCHAR 00D9
ENCODING 217
SWIDTH 617 0
DWIDTH 6 0
BBX 7 10 0 0
BITMAP
08
12
00
C6
44
44
84
84
44
78
ENDCHAR
STARTCHAR 00DA
ENCODING 218
SWIDTH 617 0
DWIDTH 6 0
BBX 6 9 0 0
BITMAP
10
00
C4
44
44
84
84
44
78
ENDCHAR
STARTCHAR 00DB
ENCODING 219
SWIDTH 617 0
DWIDTH 6 0
BBX 6 9 0 0
BITMAP
18
00
C4
44
44
84
84
44
78
ENDCHAR
STARTCHAR 00DC
ENCODING 220
SWIDTH 617 0
DWIDTH 6 0
BBX 7 9 0 0
BITMAP
02
00
C6
44
44
84
84
44
78
ENDCHAR
STARTCHAR 00DD
ENCODING 221
SWIDTH 617 0
DWIDTH 6 0
BBX 6 9 0 0
BITMAP
10
00
C4
48
28
30
10
10
30
ENDCHAR
STARTCHAR 00DE
ENCODING 222
SWIDTH 514 0
DWIDTH 5 0
BBX 5 10 1 0
BITMAP
20
20
00
F8
80
80
F0
80
80
F8
ENDCHAR
STARTCHAR 00DF
ENCODING 223
SWIDTH 617 0
DWIDTH 6 0
BBX 6 7 0 0
BITMAP
78
44
48
58
44
64
F8
ENDCHAR
STARTCHAR 00E0
ENCODING 224
SWIDTH 617 0
DWIDTH 6 0
BBX 6 9 0 0
BITMAP
20
00
10
30
48
48
78
84
84
ENDCHAR
STARTCHAR 00E1
ENCODING 225
SWIDTH 617 0
DWIDTH 6 0
BBX 6 9 0 0
BITMAP
10
00
10
30
48
48
78
84
84
ENDCHAR
STARTCHAR 00E2
ENCODING 226
SWIDTH 617 0
DWIDTH 6 0
BBX 6 9 0 0
BITMAP
30
00
10
30
48
48
78
84
84
ENDCHAR
STARTCHAR 00E3
ENCODING 227
SWIDTH 617 0
DWIDTH 6 0
BBX 6 9 0 0
BITMAP
30
00
10
30
48
48
78
84
84
ENDCHAR
STARTCHAR 00E4
ENCODING 228
SWIDTH 617 0
DWIDTH 6 0
BBX 6 10 0 0
BITMAP
10
10
00
10
30
48
48
78
84
84
ENDCHAR
STARTCHAR 00E5
ENCODING 229
SWIDTH 617 0
DWIDTH 6 0
BBX 6 7 0 -2
BITMAP
10
30
48
48
78
84
84
ENDCHAR
STARTCHAR 00E6
ENCODING 230
SWIDTH 617 0
DWIDTH 6 0
BBX 6 8 0 1
BITMAP
30
10
30
48
48
78
84
84
ENDCHAR
STARTCHAR 00E7
ENCODING 231
SWIDTH 617 0
DWIDTH 6 0
BBX 7 9 0 -2
BITMAP
3C
40
80
80
80
42
24
18
18
ENDCHAR
STARTCHAR 00E8
ENCODING 232
SWIDTH 514 0
DWIDTH 5 0
BBX 5 9 1 0
BITMAP
40
00
F8
80
80
F0
80
80
F8
ENDCHAR
STARTCHAR 00E9
ENCODING 233
SWIDTH 514 0
DWIDTH 5 0
BBX 5 9 1 0
BITMAP
20
00
F8
80
80
F0
80
80
F8
ENDCHAR
STARTCHAR 00EA
ENCODING 234
SWIDTH 514 0
DWIDTH 5 0
BBX 5 9 1 0
BITMAP
60
00
F8
80
80
F0
80
80
F8
ENDCHAR
STARTCHAR 00EB
ENCODING 235
SWIDTH 514 0
DWIDTH 5 0
BBX 5 9 1 0
BITMAP
60
00
F8
80
80
F0
80
80
F8
ENDCHAR
STARTCHAR 00EC
ENCODING 236
SWIDTH 205 0
DWIDTH 2 0
BBX 2 9 0 0
BITMAP
80
00
40
40
40
40
40
40
40
ENDCHAR
STARTCHAR 00ED
ENCODING 237
SWIDTH 205 0
DWIDTH 2 0
BBX 1 9 1 0
BITMAP
80
00
80
80
80
80
80
80
80
ENDCHAR
STARTCHAR 00EE
ENCODING 238
SWIDTH 205 0
DWIDTH 2 0
BBX 2 9 0 0
BITMAP
C0
00
40
40
40
40
40
40
40
ENDCHAR
STARTCHAR 00EF
ENCODING 239
SWIDTH 205 0
DWIDTH 2 0
BBX 2 9 0 0
BITMAP
C0
00
40
40
40
40
40
40
40
ENDCHAR
STARTCHAR 00F0
ENCODING 240
SWIDTH 617 0
DWIDTH 6 0
BBX 6 11 0 0
BITMAP
08
30
00
30
10
30
48
48
78
84
84
ENDCHAR
STARTCHAR 00F1
ENCODING 241
SWIDTH 720 0
DWIDTH 7 0
BBX 6 7 1 0
BITMAP
F0
88
84
C4
84
88
F0
ENDCHAR
STARTCHAR 00F2
ENCODING 242
SWIDTH 720 0
DWIDTH 7 0
BBX 7 9 0 0
BITMAP
10
00
3C
42
82
82
82
42
3C
ENDCHAR
STARTCHAR 00F3
ENCODING 243
SWIDTH 720 0
DWIDTH 7 0
BBX 7 9 0 0
BITMAP
08
00
3C
42
82
82
82
42
3C
ENDCHAR
STARTCHAR 00F4
ENCODING 244
SWIDTH 720 0
DWIDTH 7 0
BBX 7 9 0 0
BITMAP
18
00
3C
42
82
82
82
42
3C
ENDCHAR
STARTCHAR 00F5
ENCODING 245
SWIDTH 720 0
DWIDTH 7 0
BBX 7 9 0 0
BITMAP
18
00
3C
42
82
82
82
42
3C
ENDCHAR
STARTCHAR 00F6
ENCODING 246
SWIDTH 720 0
DWIDTH 7 0
BBX 7 9 0 0
BITMAP
28
00
3C
42
82
82
82
42
3C
ENDCHAR
STARTCHAR 00F7
ENCODING 247
SWIDTH 720 0
DWIDTH 7 0
BBX 7 9 0 0
BITMAP
06
02
3C
42
82
82
82
42
3C
ENDCHAR
STARTCHAR 00F8
ENCODING 248
SWIDTH 617 0
DWIDTH 6 0
BBX 6 9 0 -2
BITMAP
C4
44
44
84
84
44
68
10
10
ENDCHAR
STARTCHAR 00F9
ENCODING 249
SWIDTH 617 0
DWIDTH 6 0
BBX 6 9 0 0
BITMAP
10
00
C4
44
44
84
84
44
78
ENDCHAR
STARTCHAR 00FA
ENCODING 250
SWIDTH 617 0
DWIDTH 6 0
BBX 6 9 0 0
BITMAP
10
00
C4
44
44
84
84
44
78
ENDCHAR
STARTCHAR 00FB
ENCODING 251
SWIDTH 617 0
DWIDTH 6 0
BBX 6 10 0 0
BITMAP
10
10
00
C4
44
44
84
84
44
78
ENDCHAR
STARTCHAR 00FC
ENCODING 252
SWIDTH 617 0
DWIDTH 6 0
BBX 6 9 0 0
BITMAP
28
00
C4
44
44
84
84
44
78
ENDCHAR
STARTCHAR 00FD
ENCODING 253
SWIDTH 617 0
DWIDTH 6 0
BBX 6 10 0 0
BITMAP
10
10
00
C4
48
28
30
10
10
30
ENDCHAR
STARTCHAR 00FE
ENCODING 254
SWIDTH 514 0
DWIDTH 5 0
BBX 5 9 1 0
BITMAP
60
00
F8
80
80
F0
80
80
F8
ENDCHAR
STARTCHAR 00FF
ENCODING 255
SWIDTH 617 0
DWIDTH 6 0
BBX 6 9 0 0
BITMAP
20
00
C4
48
28
30
10
10
30
ENDCHAR
STARTCHAR 0106
ENCODING 262
SWIDTH 617 0
DWIDTH 6 0
BBX 0 0 0 0
BITMAP
ENDCHAR
STARTCHAR 0107
ENCODING 263
SWIDTH 411 0
DWIDTH 4 0
BBX 0 0 0 0
BITMAP
ENDCHAR
STARTCHAR 010C
ENCODING 268
SWIDTH 617 0
DWIDTH 6 0
BBX 0 0 0 0
BITMAP
ENDCHAR
STARTCHAR 010D
ENCODING 269
SWIDTH 411 0
DWIDTH 4 0
BBX 0 0 0 0
BITMAP
ENDCHAR
STARTCHAR 0111
ENCODING 273
SWIDTH 514 0
DWIDTH 5 0
BBX 0 0 0 0
BITMAP
ENDCHAR
STARTCHAR 011E
ENCODING 286
SWIDTH 720 0
DWIDTH 7 0
BBX 0 0 0 0
BITMAP
ENDCHAR
STARTCHAR 011F
ENCODING 287
SWIDTH 411 0
DWIDTH 4 0
BBX 0 0 0 0
BITMAP
ENDCHAR
STARTCHAR 0130
ENCODING 304
SWIDTH 205 0
DWIDTH 2 0
BBX 0 0 0 0
BITMAP
ENDCHAR
STARTCHAR 0131
ENCODING 305
SWIDTH 205 0
DWIDTH 2 0
BBX 0 0 0 0
BITMAP
ENDCHAR
STARTCHAR 0141
ENCODING 321
SWIDTH 514 0
DWIDTH 5 0
BBX 0 0 0 0
BITMAP
ENDCHAR
STARTCHAR 0142
ENCODING 322
SWIDTH 205 0
DWIDTH 2 0
BBX 0 0 0 0
BITMAP
ENDCHAR
STARTCHAR 0152
ENCODING 338
SWIDTH 514 0
DWIDTH 5 0
BBX 5 11 1 -2
BITMAP
60
00
F8
80
80
F0
80
80
F8
00
20
ENDCHAR
STARTCHAR 0153
ENCODING 339
SWIDTH 617 0
DWIDTH 6 0
BBX 6 9 0 -2
BITMAP
C4
48
28
30
10
10
30
00
10
ENDCHAR
STARTCHAR 015E
ENCODING 350
SWIDTH 514 0
DWIDTH 5 0
BBX 0 0 0 0
BITMAP
ENDCHAR
STARTCHAR 015F
ENCODING 351
SWIDTH 308 0
DWIDTH 3 0
BBX 0 0 0 0
BITMAP
ENDCHAR
STARTCHAR 0160
ENCODING 352
SWIDTH 514 0
DWIDTH 5 0
BBX 6 11 0 0
BITMAP
80
40
30
00
7C
40
40
78
40
40
7C
ENDCHAR
STARTCHAR 0161
ENCODING 353
SWIDTH 617 0
DWIDTH 6 0
BBX 6 9 0 0
BITMAP
10
00
C4
48
28
30
10
10
30
ENDCHAR
STARTCHAR 0178
ENCODING 376
SWIDTH 720 0
DWIDTH 7 0
BBX 7 10 0 0
BITMAP
08
16
02
3C
42
82
82
82
42
3C
ENDCHAR
STARTCHAR 017D
ENCODING 381
SWIDTH 514 0
DWIDTH 5 0
BBX 0 0 0 0
BITMAP
ENDCHAR
STARTCHAR 017E
ENCODING 382
SWIDTH 308 0
DWIDTH 3 0
BBX 0 0 0 0
BITMAP
ENDCHAR
STARTCHAR 0192
ENCODING 402
SWIDTH 617 0
DWIDTH 6 0
BBX 6 10 0 1
BITMAP
04
30
00
10
30
48
48
78
84
84
ENDCHAR
STARTCHAR 02C6
ENCODING 710
SWIDTH 617 0
DWIDTH 6 0
BBX 6 8 0 1
BITMAP
30
10
30
48
48
78
84
84
ENDCHAR
STARTCHAR 02C7
ENCODING 711
SWIDTH 411 0
DWIDTH 4 0
BBX 0 0 0 0
BITMAP
ENDCHAR
STARTCHAR 02DA
ENCODING 730
SWIDTH 411 0
DWIDTH 4 0
BBX 0 0 0 0
BITMAP
ENDCHAR
STARTCHAR 02DB
ENCODING 731
SWIDTH 411 0
DWIDTH 4 0
BBX 0 0 0 0
BITMAP
ENDCHAR
STARTCHAR 02DC
ENCODING 732
SWIDTH 720 0
DWIDTH 7 0
BBX 7 11 0 0
BITMAP
04
04
18
00
3C
42
82
82
82
42
3C
ENDCHAR
STARTCHAR 03A9
ENCODING 937
SWIDTH 720 0
DWIDTH 7 0
BBX 0 0 0 0
BITMAP
ENDCHAR
STARTCHAR 03C0
ENCODING 960
SWIDTH 617 0
DWIDTH 6 0
BBX 0 0 0 0
BITMAP
ENDCHAR
STARTCHAR 2013
ENCODING 8211
SWIDTH 720 0
DWIDTH 7 0
BBX 7 10 0 0
BITMAP
04
18
00
3C
42
82
82
82
42
3C
ENDCHAR
STARTCHAR 2014
ENCODING 8212
SWIDTH 720 0
DWIDTH 7 0
BBX 7 10 0 1
BITMAP
40
18
00
3C
42
82
82
82
42
3C
ENDCHAR
STARTCHAR 2018
ENCODING 8216
SWIDTH 205 0
DWIDTH 2 0
BBX 1 2 1 5
BITMAP
80
80
ENDCHAR
STARTCHAR 2019
ENCODING 8217
SWIDTH 205 0
DWIDTH 2 0
BBX 1 2 1 5
BITMAP
80
80
ENDCHAR
STARTCHAR 201A
ENCODING 8218
SWIDTH 617 0
DWIDTH 6 0
BBX 6 9 0 0
BITMAP
30
00
10
30
48
48
78
84
84
ENDCHAR
STARTCHAR 201C
ENCODING 8220
SWIDTH 514 0
DWIDTH 5 0
BBX 6 11 0 0
BITMAP
80
40
30
00
7C
40
40
78
40
40
7C
ENDCHAR
STARTCHAR 201D
ENCODING 8221
SWIDTH 514 0
DWIDTH 5 0
BBX 5 11 1 0
BITMAP
08
10
60
00
F8
80
80
F0
80
80
F8
ENDCHAR
STARTCHAR 201E
ENCODING 8222
SWIDTH 617 0
DWIDTH 6 0
BBX 6 11 0 0
BITMAP
80
40
30
00
10
30
48
48
78
84
84
ENDCHAR
STARTCHAR 2020
ENCODING 8224
SWIDTH 720 0
DWIDTH 7 0
BBX 7 9 0 -2
BITMAP
3C
42
82
82
82
42
24
18
10
ENDCHAR
STARTCHAR 2021
ENCODING 8225
SWIDTH 720 0
DWIDTH 7 0
BBX 7 10 0 1
BITMAP
38
18
00
3C
42
82
82
82
42
3C
ENDCHAR
STARTCHAR 2022
ENCODING 8226
SWIDTH 514 0
DWIDTH 5 0
BBX 5 11 1 0
BITMAP
10
60
60
00
F8
80
80
F0
80
80
F8
ENDCHAR
STARTCHAR 2026
ENCODING 8230
SWIDTH 617 0
DWIDTH 6 0
BBX 6 11 0 0
BITMAP
08
08
30
00
10
30
48
48
78
84
84
ENDCHAR
STARTCHAR 2030
ENCODING 8240
SWIDTH 514 0
DWIDTH 5 0
BBX 5 10 1 1
BITMAP
18
60
00
F8
80
80
F0
80
80
F8
ENDCHAR
STARTCHAR 2039
ENCODING 8249
SWIDTH 514 0
DWIDTH 5 0
BBX 5 11 1 0
BITMAP
08
10
60
00
F8
80
80
F0
80
80
F8
ENDCHAR
STARTCHAR 203A
ENCODING 8250
SWIDTH 617 0
DWIDTH 6 0
BBX 6 10 0 0
BITMAP
10
10
00
C4
48
28
30
10
10
30
ENDCHAR
STARTCHAR 20A3
ENCODING 8355
SWIDTH 822 0
DWIDTH 8 0
BBX 0 0 0 0
BITMAP
ENDCHAR
STARTCHAR 2122
ENCODING 8482
SWIDTH 720 0
DWIDTH 7 0
BBX 7 10 0 1
BITMAP
38
18
00
3C
42
82
82
82
42
3C
ENDCHAR
STARTCHAR 2202
ENCODING 8706
SWIDTH 411 0
DWIDTH 4 0
BBX 0 0 0 0
BITMAP
ENDCHAR
STARTCHAR 2206
ENCODING 8710
SWIDTH 514 0
DWIDTH 5 0
BBX 0 0 0 0
BITMAP
ENDCHAR
STARTCHAR 220F
ENCODING 8719
SWIDTH 720 0
DWIDTH 7 0
BBX 0 0 0 0
BITMAP
ENDCHAR
STARTCHAR 2211
ENCODING 8721
SWIDTH 617 0
DWIDTH 6 0
BBX 0 0 0 0
BITMAP
ENDCHAR
STARTCHAR 2212
ENCODING 8722
SWIDTH 822 0
DWIDTH 8 0
BBX 0 0 0 0
BITMAP
ENDCHAR
STARTCHAR 2215
ENCODING 8725
SWIDTH 102 0
DWIDTH 1 0
BBX 0 0 0 0
BITMAP
ENDCHAR
STARTCHAR 2219
ENCODING 8729
SWIDTH 205 0
DWIDTH 2 0
BBX 1 10 1 0
BITMAP
80
80
00
80
80
80
80
80
80
80
ENDCHAR
STARTCHAR 221A
ENCODING 8730
SWIDTH 617 0
DWIDTH 6 0
BBX 0 0 0 0
BITMAP
ENDCHAR
STARTCHAR 221E
ENCODING 8734
SWIDTH 822 0
DWIDTH 8 0
BBX 0 0 0 0
BITMAP
ENDCHAR
STARTCHAR 222B
ENCODING 8747
SWIDTH 411 0
DWIDTH 4 0
BBX 0 0 0 0
BITMAP
ENDCHAR
STARTCHAR 2248
ENCODING 8776
SWIDTH 822 0
DWIDTH 8 0
BBX 0 0 0 0
BITMAP
ENDCHAR
STARTCHAR 2260
ENCODING 8800
SWIDTH 822 0
DWIDTH 8 0
BBX 0 0 0 0
BITMAP
ENDCHAR
STARTCHAR 2264
ENCODING 8804
SWIDTH 822 0
DWIDTH 8 0
BBX 0 0 0 0
BITMAP
ENDCHAR
STARTCHAR 2265
ENCODING 8805
SWIDTH 822 0
DWIDTH 8 0
BBX 0 0 0 0
BITMAP
ENDCHAR
STARTCHAR 25CA
ENCODING 9674
SWIDTH 411 0
DWIDTH 4 0
BBX 0 0 0 0
BITMAP
ENDCHAR
STARTCHAR F000
ENCODING 61440
SWIDTH 720 0
DWIDTH 7 0
BBX 0 0 0 0
BITMAP
ENDCHAR
STARTCHAR F001
ENCODING 61441
SWIDTH 514 0
DWIDTH 5 0
BBX 0 0 0 0
BITMAP
ENDCHAR
STARTCHAR F002
ENCODING 61442
SWIDTH 514 0
DWIDTH 5 0
BBX 0 0 0 0
BITMAP
ENDCHAR
ENDFONT
